<svg xmlns="http://www.w3.org/2000/svg" viewBox="0 0 64 64" width="64" height="64">
  <circle cx="32" cy="32" r="32" fill="#fff"/>
  <path d="M32 2C28 12 22 18 16 20C16 14 14 8 10 4C10 4 12 10 8 14C8 14 10 6 4 8C4 8 8 14 4 18C4 18 10 14 8 20C8 20 14 20 20 26C14 30 10 38 8 44C8 38 4 30 0 26C6 26 10 32 10 38C10 44 6 50 0 50C4 50 8 44 10 50C10 50 6 54 10 56C6 54 4 50 4 50C8 54 6 58 10 62C10 62 14 54 16 56C18 54 20 50 20 50C20 44 22 38 32 44C42 38 44 44 44 50C44 50 46 54 48 56C50 54 52 62 52 62C56 58 54 54 58 50C62 50 60 54 62 56C58 54 54 50 58 50C52 44 54 38 54 38C54 32 58 26 64 26C60 30 56 38 56 44C54 38 50 30 44 26C50 20 56 20 56 20C50 14 56 18 60 18C56 14 60 8 56 8C56 6 58 14 62 10C58 8 56 4 56 4C52 8 50 14 50 20C44 18 38 12 32 2Z" fill="#FF69B4"/>
  <text x="50%" y="50%" font-family="Arial" font-size="10" fill="#000" text-anchor="middle" alignment-baseline="central">
    विष्णु सहस्रनाम
  </text>
</svg>
